<svg width="56" height="56" viewBox="0 0 56 56" fill="none" xmlns="http://www.w3.org/2000/svg">
<circle cx="28" cy="28" r="28" fill="#DDDDDD"/>
<path d="M42.1909 21.66L41.579 21.6451C41.0378 18.7945 39.7058 16.244 37.8326 14.2614C35.3443 11.6284 31.9074 10 28.1102 10C24.313 10 20.8748 11.6284 18.3878 14.2614C16.5397 16.217 15.219 18.7256 14.6639 21.5295L13.8091 21.5126C11.7082 21.5126 10 23.1836 10 25.2373V31.4333C10 33.4869 11.7088 35.158 13.8091 35.158H16.281C16.8433 36.6735 17.5357 38.1296 18.3806 39.4349C19.3125 40.8747 20.424 42.132 21.7263 43.1082C21.7573 44.7075 23.0325 46 24.6008 46H27.6251C29.2132 46 30.5062 44.6764 30.5062 43.05C30.5062 41.4236 29.2132 40.1 27.6251 40.1H24.6008C23.7394 40.1 22.9738 40.4975 22.4451 41.1133C21.5223 40.3393 20.7191 39.3869 20.0274 38.3188C17.8644 34.9754 16.7733 30.5342 16.4598 26.7569C17.5232 24.368 19.6907 23.2397 21.3303 22.7172C23.2728 22.098 25.0971 22.0737 26.2192 22.2001C25.9618 22.5827 25.8912 22.9883 26.0106 23.4121C26.2819 24.3801 27.4396 24.8337 29.4547 24.7573C32.4988 24.6444 37.0234 23.2404 39.0445 19.9342C39.5699 21.3511 39.8682 22.8896 39.8682 24.5065C39.8682 27.683 39.2372 31.7578 37.7581 35.3053H42.1909C44.2918 35.3053 46 33.6343 46 31.5807V25.3846C46 23.3303 44.2918 21.66 42.1909 21.66ZM24.6014 42.1266H27.6258C28.1228 42.1266 28.5267 42.5397 28.5267 43.0487C28.5267 43.5577 28.1228 43.9707 27.6258 43.9707H24.6014C24.1051 43.9707 23.7011 43.5577 23.7011 43.0487C23.7011 42.5397 24.1051 42.1266 24.6014 42.1266ZM14.6289 29.037L15.3846 33.1293H13.8091C12.8006 33.1293 11.9801 32.3682 11.9801 31.4326V25.2366C11.9801 24.301 12.8006 23.5399 13.8091 23.5399H14.417C14.3972 23.861 14.3708 24.18 14.3708 24.5065C14.3708 24.5795 14.3741 24.658 14.3748 24.7323C14.3728 24.8344 14.3715 24.9365 14.3715 25.0392L14.4111 26.5608L14.452 26.5581C14.4533 26.5818 14.4553 26.6055 14.4573 26.6291L14.4157 26.6345L14.6289 29.037ZM33.9166 21.6647C31.9213 22.5496 29.8587 22.7895 28.6666 22.7334C30.4164 22.1839 31.9312 20.9813 32.8605 19.3306C33.4764 18.2382 33.8123 16.9937 33.8361 15.7323L31.856 15.6945C31.8395 16.6145 31.5946 17.5216 31.1458 18.3179C30.5108 19.4455 29.5042 20.2911 28.33 20.7238C27.8937 20.452 27.2509 20.2708 26.3651 20.1755C23.9183 19.9146 19.3224 20.381 16.407 23.3438C16.6671 20.354 17.9126 17.671 19.8036 15.6708C21.9303 13.4205 24.8674 12.0279 28.1109 12.0279C31.3543 12.0279 34.2909 13.4205 36.4182 15.6708C36.9726 16.2582 37.4696 16.9065 37.9052 17.6021C37.3119 19.7368 35.438 20.9901 33.9166 21.6647ZM44.0199 31.58C44.0199 32.5155 43.1994 33.2767 42.1909 33.2767H40.8292C41.4853 30.6248 41.8417 27.7986 41.8417 25.1866C41.8417 25.148 41.8371 25.1102 41.8365 25.071C41.8404 24.8831 41.8497 24.689 41.8497 24.5059C41.8497 24.2294 41.8246 23.9597 41.8101 23.6872H42.1909C43.1994 23.6872 44.0199 24.4484 44.0199 25.384V31.58Z" fill="#191D30" stroke="#191D30" stroke-width="0.5"/>
</svg>
